<svg width="60" height="60" viewBox="0 0 60 60" fill="none" xmlns="http://www.w3.org/2000/svg">
<g clip-path="url(#clip0_905_3744)">
<path d="M38 20H37V19C37 18.7348 36.8946 18.4804 36.7071 18.2929C36.5196 18.1054 36.2652 18 36 18C35.7348 18 35.4804 18.1054 35.2929 18.2929C35.1054 18.4804 35 18.7348 35 19V20H25V19C25 18.7348 24.8946 18.4804 24.7071 18.2929C24.5196 18.1054 24.2652 18 24 18C23.7348 18 23.4804 18.1054 23.2929 18.2929C23.1054 18.4804 23 18.7348 23 19V20H22C20.9391 20 19.9217 20.4214 19.1716 21.1716C18.4214 21.9217 18 22.9391 18 24V38C18 39.0609 18.4214 40.0783 19.1716 40.8284C19.9217 41.5786 20.9391 42 22 42H38C39.0609 42 40.0783 41.5786 40.8284 40.8284C41.5786 40.0783 42 39.0609 42 38V24C42 22.9391 41.5786 21.9217 40.8284 21.1716C40.0783 20.4214 39.0609 20 38 20ZM40 38C40 38.5304 39.7893 39.0391 39.4142 39.4142C39.0391 39.7893 38.5304 40 38 40H22C21.4696 40 20.9609 39.7893 20.5858 39.4142C20.2107 39.0391 20 38.5304 20 38V24C20 23.4696 20.2107 22.9609 20.5858 22.5858C20.9609 22.2107 21.4696 22 22 22H23V23C23 23.2652 23.1054 23.5196 23.2929 23.7071C23.4804 23.8946 23.7348 24 24 24C24.2652 24 24.5196 23.8946 24.7071 23.7071C24.8946 23.5196 25 23.2652 25 23V22H35V23C35 23.2652 35.1054 23.5196 35.2929 23.7071C35.4804 23.8946 35.7348 24 36 24C36.2652 24 36.5196 23.8946 36.7071 23.7071C36.8946 23.5196 37 23.2652 37 23V22H38C38.5304 22 39.0391 22.2107 39.4142 22.5858C39.7893 22.9609 40 23.4696 40 24V38Z" fill="#FF9066"/>
<path d="M37 25H23C22.7348 25 22.4804 25.1054 22.2929 25.2929C22.1054 25.4804 22 25.7348 22 26C22 26.2652 22.1054 26.5196 22.2929 26.7071C22.4804 26.8946 22.7348 27 23 27H37C37.2652 27 37.5196 26.8946 37.7071 26.7071C37.8946 26.5196 38 26.2652 38 26C38 25.7348 37.8946 25.4804 37.7071 25.2929C37.5196 25.1054 37.2652 25 37 25Z" fill="#FF9066"/>
<path d="M25 30H23C22.7348 30 22.4804 30.1054 22.2929 30.2929C22.1054 30.4804 22 30.7348 22 31C22 31.2652 22.1054 31.5196 22.2929 31.7071C22.4804 31.8946 22.7348 32 23 32H25C25.2652 32 25.5196 31.8946 25.7071 31.7071C25.8946 31.5196 26 31.2652 26 31C26 30.7348 25.8946 30.4804 25.7071 30.2929C25.5196 30.1054 25.2652 30 25 30Z" fill="#FF9066"/>
<path d="M25 35H23C22.7348 35 22.4804 35.1054 22.2929 35.2929C22.1054 35.4804 22 35.7348 22 36C22 36.2652 22.1054 36.5196 22.2929 36.7071C22.4804 36.8946 22.7348 37 23 37H25C25.2652 37 25.5196 36.8946 25.7071 36.7071C25.8946 36.5196 26 36.2652 26 36C26 35.7348 25.8946 35.4804 25.7071 35.2929C25.5196 35.1054 25.2652 35 25 35Z" fill="#FF9066"/>
<path d="M31 30H29C28.7348 30 28.4804 30.1054 28.2929 30.2929C28.1054 30.4804 28 30.7348 28 31C28 31.2652 28.1054 31.5196 28.2929 31.7071C28.4804 31.8946 28.7348 32 29 32H31C31.2652 32 31.5196 31.8946 31.7071 31.7071C31.8946 31.5196 32 31.2652 32 31C32 30.7348 31.8946 30.4804 31.7071 30.2929C31.5196 30.1054 31.2652 30 31 30Z" fill="#FF9066"/>
<path d="M31 35H29C28.7348 35 28.4804 35.1054 28.2929 35.2929C28.1054 35.4804 28 35.7348 28 36C28 36.2652 28.1054 36.5196 28.2929 36.7071C28.4804 36.8946 28.7348 37 29 37H31C31.2652 37 31.5196 36.8946 31.7071 36.7071C31.8946 36.5196 32 36.2652 32 36C32 35.7348 31.8946 35.4804 31.7071 35.2929C31.5196 35.1054 31.2652 35 31 35Z" fill="#FF9066"/>
<path d="M37 30H35C34.7348 30 34.4804 30.1054 34.2929 30.2929C34.1054 30.4804 34 30.7348 34 31C34 31.2652 34.1054 31.5196 34.2929 31.7071C34.4804 31.8946 34.7348 32 35 32H37C37.2652 32 37.5196 31.8946 37.7071 31.7071C37.8946 31.5196 38 31.2652 38 31C38 30.7348 37.8946 30.4804 37.7071 30.2929C37.5196 30.1054 37.2652 30 37 30Z" fill="#FF9066"/>
<path d="M37 35H35C34.7348 35 34.4804 35.1054 34.2929 35.2929C34.1054 35.4804 34 35.7348 34 36C34 36.2652 34.1054 36.5196 34.2929 36.7071C34.4804 36.8946 34.7348 37 35 37H37C37.2652 37 37.5196 36.8946 37.7071 36.7071C37.8946 36.5196 38 36.2652 38 36C38 35.7348 37.8946 35.4804 37.7071 35.2929C37.5196 35.1054 37.2652 35 37 35Z" fill="#FF9066"/>
</g>
<path opacity="0.3" fill-rule="evenodd" clip-rule="evenodd" d="M0 30V37C0 49.7025 10.2975 60 23 60H30H37C49.7025 60 60 49.7025 60 37V30V23C60 10.2975 49.7025 0 37 0H30H23C10.2975 0 0 10.2975 0 23V30Z" fill="#FF9066"/>
<defs>
<clipPath id="clip0_905_3744">
<rect width="24" height="24" fill="white" transform="translate(18 18)"/>
</clipPath>
</defs>
</svg>
