<svg width="40" height="40" viewBox="0 0 40 40" fill="none" xmlns="http://www.w3.org/2000/svg">
<path opacity="0.21" fill-rule="evenodd" clip-rule="evenodd" d="M0 20V25C0 33.2843 6.71573 40 15 40H20H25C33.2843 40 40 33.2843 40 25V20V15C40 6.71573 33.2843 0 25 0H20H15C6.71573 0 0 6.71573 0 15V20Z" fill="#FE823D"/>
<g opacity="0.5">
<path d="M21.8206 11.167H17.5123C16.559 11.167 15.7798 11.937 15.7798 12.8903V13.752C15.7798 14.7053 16.5498 15.4753 17.5031 15.4753H21.8206C22.774 15.4753 23.544 14.7053 23.544 13.752V12.8903C23.5531 11.937 22.774 11.167 21.8206 11.167Z" fill="#FE823D"/>
<path d="M24.4696 13.7517C24.4696 15.2092 23.278 16.4009 21.8205 16.4009H17.5121C16.0546 16.4009 14.863 15.2092 14.863 13.7517C14.863 13.2384 14.313 12.9175 13.8546 13.1559C12.5621 13.8434 11.6821 15.2092 11.6821 16.7767V25.4025C11.6821 27.6575 13.5246 29.5 15.7796 29.5H23.553C25.808 29.5 27.6505 27.6575 27.6505 25.4025V16.7767C27.6505 15.2092 26.7705 13.8434 25.478 13.1559C25.0196 12.9175 24.4696 13.2384 24.4696 13.7517ZM22.728 21.0025L19.0613 24.6692C18.9238 24.8067 18.7496 24.8709 18.5755 24.8709C18.4013 24.8709 18.2271 24.8067 18.0896 24.6692L16.7146 23.2942C16.4488 23.0284 16.4488 22.5884 16.7146 22.3225C16.9805 22.0567 17.4205 22.0567 17.6863 22.3225L18.5755 23.2117L21.7563 20.0309C22.0221 19.765 22.4621 19.765 22.728 20.0309C22.9938 20.2967 22.9938 20.7367 22.728 21.0025Z" fill="#FE823D"/>
</g>
</svg>
