<svg width="32" height="32" viewBox="0 0 32 32" fill="none" xmlns="http://www.w3.org/2000/svg">
<path d="M25.5598 8.85336C24.9864 5.96003 22.8398 4.69336 19.8531 4.69336H8.14645C4.62645 4.69336 2.27979 6.45336 2.27979 10.56V17.4267C2.27979 20.3867 3.49312 22.12 5.49312 22.8667C5.78645 22.9734 6.10645 23.0667 6.43978 23.12C6.97312 23.24 7.54645 23.2934 8.14645 23.2934H19.8664C23.3864 23.2934 25.7331 21.5334 25.7331 17.4267V10.56C25.7331 9.93336 25.6798 9.37336 25.5598 8.85336ZM7.37312 16C7.37312 16.5467 6.91979 17 6.37312 17C5.82645 17 5.37312 16.5467 5.37312 16V12C5.37312 11.4534 5.82645 11 6.37312 11C6.91979 11 7.37312 11.4534 7.37312 12V16ZM13.9998 17.52C12.0531 17.52 10.4798 15.9467 10.4798 14C10.4798 12.0534 12.0531 10.48 13.9998 10.48C15.9465 10.48 17.5198 12.0534 17.5198 14C17.5198 15.9467 15.9465 17.52 13.9998 17.52ZM22.6131 16C22.6131 16.5467 22.1598 17 21.6131 17C21.0665 17 20.6131 16.5467 20.6131 16V12C20.6131 11.4534 21.0665 11 21.6131 11C22.1598 11 22.6131 11.4534 22.6131 12V16Z" fill="#CA2543"/>
<path d="M29.7335 14.56V21.4266C29.7335 25.5333 27.3868 27.3066 23.8535 27.3066H12.1468C11.1468 27.3066 10.2535 27.16 9.48018 26.8666C8.85351 26.64 8.30685 26.3066 7.86685 25.88C7.62685 25.6533 7.81351 25.2933 8.14685 25.2933H19.8535C24.7868 25.2933 27.7202 22.36 27.7202 17.44V10.56C27.7202 10.24 28.0802 10.04 28.3068 10.28C29.2135 11.24 29.7335 12.64 29.7335 14.56Z" fill="#CA2543"/>
</svg>
