<svg width="60" height="60" viewBox="0 0 60 60" fill="none" xmlns="http://www.w3.org/2000/svg">
<path opacity="0.3" fill-rule="evenodd" clip-rule="evenodd" d="M0 30V37C0 49.7025 10.2975 60 23 60H30H37C49.7025 60 60 49.7025 60 37V30V23C60 10.2975 49.7025 0 37 0H30H23C10.2975 0 0 10.2975 0 23V30Z" fill="#FF9066"/>
<path d="M40 24H34C33.4473 24 33 23.5527 33 23V17H35V22H40V24Z" fill="#FF9066"/>
<path d="M40 44H20C19.4473 44 19 43.5527 19 43V17C19 16.4473 19.4473 16 20 16H34C34.2656 16 34.5195 16.1055 34.707 16.293L40.707 22.293C40.8945 22.4805 41 22.7344 41 23V43C41 43.5527 40.5527 44 40 44ZM21 42H39V23.4141L33.5859 18H21V42Z" fill="#FF9066"/>
<path d="M36 32H24V34H36V32Z" fill="#FF9066"/>
<path d="M33 29H31V39H33V29Z" fill="#FF9066"/>
<path d="M36 40H24C23.4473 40 23 39.5527 23 39V29C23 28.4473 23.4473 28 24 28H36C36.5527 28 37 28.4473 37 29V39C37 39.5527 36.5527 40 36 40ZM25 38H35V30H25V38Z" fill="#FF9066"/>
<path d="M28 22H24C23.4473 22 23 21.5527 23 21C23 20.4473 23.4473 20 24 20H28C28.5527 20 29 20.4473 29 21C29 21.5527 28.5527 22 28 22Z" fill="#FF9066"/>
<path d="M30 26H24C23.4473 26 23 25.5527 23 25C23 24.4473 23.4473 24 24 24H30C30.5527 24 31 24.4473 31 25C31 25.5527 30.5527 26 30 26Z" fill="#FF9066"/>
</svg>
