<svg width="32" height="32" viewBox="0 0 32 32" fill="none" xmlns="http://www.w3.org/2000/svg">
<path d="M25.0801 8.33331H26.8934C26.6401 7.97331 26.3734 7.63997 26.0934 7.30664L25.0801 8.33331Z" fill="#CA2543"/>
<path d="M24.6932 5.89326C24.3598 5.61326 24.0265 5.3466 23.6665 5.09326V6.90659L24.6932 5.89326Z" fill="#CA2543"/>
<path d="M26.1067 7.30659L30.04 3.37326C30.4267 2.98659 30.4267 2.34659 30.04 1.95992C29.6534 1.57326 29.0134 1.57326 28.6267 1.95992L24.6934 5.89326C25.2 6.33326 25.6667 6.81326 26.1067 7.30659Z" fill="#CA2543"/>
<path d="M23.6668 4C23.6668 3.45333 23.2135 3 22.6668 3C22.1335 3 21.7068 3.42667 21.6802 3.94667C22.3735 4.28 23.0402 4.65333 23.6668 5.09333V4Z" fill="#CA2543"/>
<path d="M29.0002 9.33325C29.0002 8.78659 28.5469 8.33325 28.0002 8.33325H26.8936C27.3336 8.95992 27.7202 9.62659 28.0402 10.3199C28.5736 10.2933 29.0002 9.86659 29.0002 9.33325Z" fill="#CA2543"/>
<path d="M17 19.6666H17.4C17.92 19.6666 18.3333 19.1999 18.3333 18.6266C18.3333 17.9066 18.1333 17.7999 17.68 17.6399L17 17.3999V19.6666Z" fill="#CA2543"/>
<path d="M28.0532 10.3201C28.0398 10.3201 28.0265 10.3334 27.9998 10.3334H22.6665C22.5332 10.3334 22.4132 10.3067 22.2798 10.2534C22.0398 10.1467 21.8398 9.96008 21.7332 9.70675C21.6932 9.58675 21.6665 9.46675 21.6665 9.33342V4.00008C21.6665 3.98675 21.6798 3.97341 21.6798 3.94675C19.9465 3.13341 18.0265 2.66675 15.9998 2.66675C8.63984 2.66675 2.6665 8.64008 2.6665 16.0001C2.6665 23.3601 8.63984 29.3334 15.9998 29.3334C23.3598 29.3334 29.3332 23.3601 29.3332 16.0001C29.3332 13.9734 28.8665 12.0534 28.0532 10.3201ZM18.3332 15.7601C19.1865 16.0534 20.3332 16.6801 20.3332 18.6401C20.3332 20.3067 19.0132 21.6801 17.3998 21.6801H16.9998V22.0134C16.9998 22.5601 16.5465 23.0134 15.9998 23.0134C15.4532 23.0134 14.9998 22.5601 14.9998 22.0134V21.6801H14.8932C13.1198 21.6801 11.6665 20.1867 11.6665 18.3467C11.6665 17.7867 12.1198 17.3334 12.6665 17.3334C13.2132 17.3334 13.6665 17.7867 13.6665 18.3334C13.6665 19.0667 14.2132 19.6667 14.8932 19.6667H14.9998V16.7067L13.6665 16.2401C12.8132 15.9467 11.6665 15.3201 11.6665 13.3601C11.6665 11.6934 12.9865 10.3201 14.5998 10.3201H14.9998V10.0001C14.9998 9.45341 15.4532 9.00008 15.9998 9.00008C16.5465 9.00008 16.9998 9.45341 16.9998 10.0001V10.3334H17.1065C18.8798 10.3334 20.3332 11.8267 20.3332 13.6667C20.3332 14.2134 19.8798 14.6667 19.3332 14.6667C18.7865 14.6667 18.3332 14.2134 18.3332 13.6667C18.3332 12.9334 17.7865 12.3334 17.1065 12.3334H16.9998V15.2934L18.3332 15.7601Z" fill="#CA2543"/>
<path d="M13.6665 13.3733C13.6665 14.0933 13.8665 14.1999 14.3198 14.3599L14.9998 14.5999V12.3333H14.5998C14.0932 12.3333 13.6665 12.7999 13.6665 13.3733Z" fill="#CA2543"/>
</svg>
