<svg width="32" height="32" viewBox="0 0 32 32" fill="none" xmlns="http://www.w3.org/2000/svg">
<path d="M9.33317 2.66675H7.99984C3.99984 2.66675 2.6665 5.05341 2.6665 8.00008V9.33342V28.0001C2.6665 29.1067 3.91984 29.7334 4.79984 29.0667L7.07984 27.3601C7.61317 26.9601 8.35984 27.0134 8.83984 27.4934L11.0532 29.7201C11.5732 30.2401 12.4265 30.2401 12.9465 29.7201L15.1865 27.4801C15.6532 27.0134 16.3998 26.9601 16.9198 27.3601L19.1998 29.0667C20.0798 29.7201 21.3332 29.0934 21.3332 28.0001V5.33341C21.3332 3.86675 22.5332 2.66675 23.9998 2.66675H9.33317ZM7.95984 18.6801C7.2265 18.6801 6.6265 18.0801 6.6265 17.3467C6.6265 16.6134 7.2265 16.0134 7.95984 16.0134C8.69317 16.0134 9.29317 16.6134 9.29317 17.3467C9.29317 18.0801 8.69317 18.6801 7.95984 18.6801ZM7.95984 13.3467C7.2265 13.3467 6.6265 12.7467 6.6265 12.0134C6.6265 11.2801 7.2265 10.6801 7.95984 10.6801C8.69317 10.6801 9.29317 11.2801 9.29317 12.0134C9.29317 12.7467 8.69317 13.3467 7.95984 13.3467ZM15.9998 18.3467H11.9998C11.4532 18.3467 10.9998 17.8934 10.9998 17.3467C10.9998 16.8001 11.4532 16.3467 11.9998 16.3467H15.9998C16.5465 16.3467 16.9998 16.8001 16.9998 17.3467C16.9998 17.8934 16.5465 18.3467 15.9998 18.3467ZM15.9998 13.0134H11.9998C11.4532 13.0134 10.9998 12.5601 10.9998 12.0134C10.9998 11.4667 11.4532 11.0134 11.9998 11.0134H15.9998C16.5465 11.0134 16.9998 11.4667 16.9998 12.0134C16.9998 12.5601 16.5465 13.0134 15.9998 13.0134Z" fill="#CA2543"/>
<path d="M24.0135 2.66675V4.66675C24.8935 4.66675 25.7335 5.02675 26.3468 5.62675C26.9868 6.28008 27.3335 7.12008 27.3335 8.00008V11.2267C27.3335 12.2134 26.8935 12.6667 25.8935 12.6667H23.3335V5.34675C23.3335 4.97342 23.6402 4.66675 24.0135 4.66675V2.66675ZM24.0135 2.66675C22.5335 2.66675 21.3335 3.86675 21.3335 5.34675V14.6667H25.8935C28.0002 14.6667 29.3335 13.3334 29.3335 11.2267V8.00008C29.3335 6.53341 28.7335 5.20008 27.7735 4.22675C26.8002 3.26675 25.4802 2.68008 24.0135 2.66675C24.0268 2.66675 24.0135 2.66675 24.0135 2.66675Z" fill="#CA2543"/>
</svg>
