<svg width="40" height="40" viewBox="0 0 40 40" fill="none" xmlns="http://www.w3.org/2000/svg">
<path opacity="0.21" fill-rule="evenodd" clip-rule="evenodd" d="M0 20V25C0 33.2843 6.71573 40 15 40H20H25C33.2843 40 40 33.2843 40 25V20V15C40 6.71573 33.2843 0 25 0H20H15C6.71573 0 0 6.71573 0 15V20Z" fill="#CED94A"/>
<path d="M12.7406 27.2596H28.2961C28.8689 27.2596 29.3332 27.7239 29.3332 28.2966C29.3332 28.8694 28.8689 29.3337 28.2961 29.3337H11.7035C11.1308 29.3337 10.6665 28.8694 10.6665 28.2966V11.704C10.6665 11.1313 11.1308 10.667 11.7035 10.667C12.2763 10.667 12.7406 11.1313 12.7406 11.704V27.2596Z" fill="#CED94A"/>
<path opacity="0.5" d="M16.6085 22.783C16.2168 23.2008 15.5605 23.222 15.1427 22.8303C14.7249 22.4386 14.7037 21.7823 15.0954 21.3644L18.9843 17.2163C19.3632 16.8122 19.9927 16.7772 20.414 17.1367L23.4834 19.7559L27.4825 14.6904C27.8374 14.2409 28.4895 14.1641 28.939 14.519C29.3886 14.8739 29.4653 15.526 29.1104 15.9756L24.4437 21.8867C24.0792 22.3484 23.4041 22.4148 22.9566 22.0329L19.8205 19.3569L16.6085 22.783Z" fill="#CED94A"/>
</svg>
