<svg width="60" height="60" viewBox="0 0 60 60" fill="none" xmlns="http://www.w3.org/2000/svg">
<path opacity="0.21" fill-rule="evenodd" clip-rule="evenodd" d="M0 30V37C0 49.7025 10.2975 60 23 60H30H37C49.7025 60 60 49.7025 60 37V30V23C60 10.2975 49.7025 0 37 0H30H23C10.2975 0 0 10.2975 0 23V30Z" fill="#FEC53D"/>
<path d="M24.6093 31.0498C20.2809 32.9998 17.1421 37.0499 16.5938 41.9999C16.5938 43.6499 17.8431 44.9999 19.5 44.9999H40.5C42.1575 44.9999 43.407 43.6499 43.407 41.9999C42.858 37.0499 39.7185 32.9998 35.391 31.0498C34.4175 32.9998 32.3745 34.4999 30 34.4999C27.6255 34.4999 25.5821 32.9998 24.6093 31.0498Z" fill="#F7DB96"/>
<path d="M37.5 22.5C37.5 24.4891 36.7098 26.3968 35.3033 27.8033C33.8968 29.2098 31.9891 30 30 30C28.0109 30 26.1032 29.2098 24.6967 27.8033C23.2902 26.3968 22.5 24.4891 22.5 22.5C22.5 20.5109 23.2902 18.6032 24.6967 17.1967C26.1032 15.7902 28.0109 15 30 15C31.9891 15 33.8968 15.7902 35.3033 17.1967C36.7098 18.6032 37.5 20.5109 37.5 22.5Z" fill="#F7DB96"/>
<path d="M29.4062 30C27.4908 30 25.6648 30.4035 24.0156 31.125C19.6872 33.018 16.5484 37.1205 16 42C16 43.6575 17.2494 45 18.9062 45H39.9062C41.5637 45 42.8132 43.6575 42.8132 42C42.2642 37.1205 39.1248 33.018 34.7972 31.125C33.1472 30.4035 31.3217 30 29.4062 30Z" fill="#F7DB96"/>
</svg>
