<svg width="205" height="98" viewBox="0 0 205 98" fill="none" xmlns="http://www.w3.org/2000/svg">
<path d="M125.872 40.7543C132.675 50.7737 131.453 64.7561 131.264 66.5772L117.259 66.4028C117.602 62.942 117.63 52.0924 113.481 47.5083C112.628 46.5733 111.287 45.4988 108.431 45.4988H68.5117V31.5443H111.972C116.826 31.5443 120.773 27.6021 120.773 22.7529C120.773 17.9037 116.826 13.9546 111.972 13.9546H68.5117V0H111.972C124.524 0 134.743 10.2078 134.743 22.7529C134.743 30.0651 131.264 36.5889 125.872 40.7543Z" fill="white"/>
<path d="M58.7028 97.9122L53.4291 90.9907V97.9122H49.6084V82.2412H53.4291V89.1208L58.6609 82.2412H63.1522L57.0753 89.9232L63.3757 97.9192H58.7028V97.9122Z" fill="white"/>
<path d="M69.0053 85.2972V88.4648H74.1253V91.4092H69.0053V94.8491H74.7958V97.9051H65.1846V82.2341H74.7958V85.2902H69.0053V85.2972Z" fill="white"/>
<path d="M88.563 82.2341V85.2902H84.407V97.9051H80.5862V85.2902H76.4302V82.2341H88.57H88.563Z" fill="white"/>
<path d="M104.992 95.1422H99.1385L98.2025 97.9122H94.2002L99.8789 82.2412H104.307L109.986 97.9122H105.942L105.006 95.1422H104.992ZM104.007 92.1978L102.065 86.4625L100.144 92.1978H104.014H104.007Z" fill="white"/>
<path d="M121.909 83.218C123.145 83.8739 124.102 84.7949 124.78 85.9741C125.457 87.1602 125.799 88.5208 125.799 90.0697C125.799 91.6187 125.457 92.9653 124.78 94.1584C124.102 95.3515 123.138 96.2725 121.895 96.9284C120.652 97.5842 119.206 97.9122 117.571 97.9122H111.69V82.2412H117.571C119.227 82.2412 120.673 82.5691 121.909 83.225V83.218ZM120.7 93.4188C121.504 92.6304 121.909 91.514 121.909 90.0697C121.909 88.6254 121.504 87.5021 120.7 86.6997C119.897 85.8973 118.773 85.4926 117.327 85.4926H115.518V94.6049H117.327C118.773 94.6049 119.897 94.2142 120.7 93.4188Z" fill="white"/>
<path d="M142.675 82.2341L137.108 97.9051H132.324L126.757 82.2341H130.822L134.713 94.0676L138.624 82.2341H142.668H142.675Z" fill="white"/>
<path d="M154.033 95.1422H148.18L147.244 97.9122H143.241L148.92 82.2412H153.348L159.027 97.9122H154.983L154.047 95.1422H154.033ZM153.048 92.1978L151.106 86.4625L149.185 92.1978H153.055H153.048Z" fill="white"/>
<path d="M174.771 97.9122H170.95L164.559 88.2417V97.9122H160.738V82.2412H164.559L170.95 91.9536V82.2412H174.771V97.9122Z" fill="white"/>
<path d="M33.2466 85.7968C33.9171 84.5827 34.8531 83.6408 36.0545 82.964C37.2559 82.2872 38.611 81.9453 40.1337 81.9453C41.9987 81.9453 43.5912 82.4337 44.9183 83.4175C46.2455 84.4013 47.1326 85.741 47.5796 87.4364H43.3747C43.0604 86.7806 42.6203 86.2852 42.0475 85.9433C41.4748 85.6014 40.8252 85.427 40.0918 85.427C38.9113 85.427 37.9614 85.8386 37.228 86.655C36.4945 87.4713 36.1313 88.5667 36.1313 89.9343C36.1313 91.3018 36.4945 92.3973 37.228 93.2136C37.9544 94.03 38.9113 94.4416 40.0918 94.4416C40.8182 94.4416 41.4748 94.2672 42.0475 93.9253C42.6203 93.5834 43.0673 93.081 43.3747 92.4322H47.5796C47.1326 94.1276 46.2455 95.4673 44.9183 96.4371C43.5912 97.4139 41.9987 97.9023 40.1337 97.9023C38.611 97.9023 37.2559 97.5605 36.0545 96.8837C34.8531 96.2069 33.9171 95.2649 33.2466 94.0579C32.576 92.8508 32.2407 91.4763 32.2407 89.9273C32.2407 88.3784 32.576 86.9969 33.2466 85.7828V85.7968Z" fill="white"/>
<path d="M176.987 85.7968C177.657 84.5827 178.593 83.6408 179.795 82.964C180.996 82.2872 182.351 81.9453 183.874 81.9453C185.739 81.9453 187.331 82.4337 188.659 83.4175C189.986 84.4013 190.873 85.741 191.32 87.4364H187.115C186.801 86.7806 186.361 86.2852 185.788 85.9433C185.215 85.6014 184.565 85.427 183.832 85.427C182.652 85.427 181.702 85.8386 180.968 86.655C180.235 87.4713 179.872 88.5667 179.872 89.9343C179.872 91.3018 180.235 92.3973 180.968 93.2136C181.695 94.03 182.652 94.4416 183.832 94.4416C184.558 94.4416 185.215 94.2672 185.788 93.9253C186.361 93.5834 186.808 93.081 187.115 92.4322H191.32C190.873 94.1276 189.986 95.4673 188.659 96.4371C187.331 97.4139 185.739 97.9023 183.874 97.9023C182.351 97.9023 180.996 97.5605 179.795 96.8837C178.593 96.2069 177.657 95.2649 176.987 94.0579C176.316 92.8508 175.981 91.4763 175.981 89.9273C175.981 88.3784 176.316 86.9969 176.987 85.7828V85.7968Z" fill="white"/>
<path d="M198.401 85.2972V88.4648H203.521V91.4092H198.401V94.8491H204.191V97.9051H194.58V82.2341H204.191V85.2902H198.401V85.2972Z" fill="white"/>
<path d="M8.00471 97.9122L4.74276 91.9955H3.82773V97.9122H0V82.2412H6.41215C7.64848 82.2412 8.70321 82.4575 9.57632 82.8901C10.4494 83.3227 11.099 83.9158 11.5321 84.6623C11.9652 85.4159 12.1817 86.2531 12.1817 87.1741C12.1817 88.2138 11.8883 89.1487 11.3016 89.9651C10.7149 90.7814 9.84175 91.3605 8.69622 91.7094L12.3144 97.9192H7.99773L8.00471 97.9122ZM3.82773 89.2952H6.19562C6.89411 89.2952 7.41798 89.1208 7.77421 88.7789C8.12346 88.437 8.29808 87.9556 8.29808 87.3276C8.29808 86.6997 8.12346 86.2601 7.77421 85.9182C7.42497 85.5763 6.9011 85.4019 6.19562 85.4019H3.82773V89.2883V89.2952Z" fill="white"/>
<path d="M17.9371 96.9744C16.7077 96.2906 15.7298 95.3347 15.0104 94.1067C14.2909 92.8787 13.9277 91.4972 13.9277 89.9622C13.9277 88.4272 14.2909 87.0527 15.0104 85.8317C15.7298 84.6106 16.7077 83.6617 17.9371 82.971C19.1664 82.2872 20.5215 81.9453 21.9953 81.9453C23.4691 81.9453 24.8242 82.2872 26.0535 82.971C27.2829 83.6547 28.2538 84.6106 28.9593 85.8317C29.6648 87.0527 30.021 88.4272 30.021 89.9622C30.021 91.4972 29.6648 92.8787 28.9453 94.1067C28.2328 95.3347 27.2619 96.2906 26.0396 96.9744C24.8172 97.6581 23.4691 98 21.9953 98C20.5215 98 19.1664 97.6581 17.9371 96.9744ZM24.9988 93.2694C25.7532 92.4322 26.1304 91.3367 26.1304 89.9622C26.1304 88.5877 25.7532 87.4713 24.9988 86.648C24.2445 85.8247 23.2456 85.406 21.9953 85.406C20.745 85.406 19.7182 85.8177 18.9639 86.634C18.2095 87.4504 17.8323 88.5598 17.8323 89.9622C17.8323 91.3646 18.2095 92.4531 18.9639 93.2764C19.7182 94.0997 20.7241 94.5184 21.9953 94.5184C23.2666 94.5184 24.2514 94.0997 24.9988 93.2694Z" fill="white"/>
</svg>