<svg width="133" height="64" viewBox="0 0 133 64" fill="none" xmlns="http://www.w3.org/2000/svg">
<path d="M81.9865 26.5453C86.4178 33.0714 85.6216 42.1789 85.4988 43.365L76.3768 43.2514C76.5997 40.9973 76.6179 33.9303 73.9155 30.9445C73.3604 30.3355 72.4869 29.6356 70.6261 29.6356H44.625V20.5463H72.9327C76.0947 20.5463 78.6653 17.9786 78.6653 14.8201C78.6653 11.6616 76.0947 9.08929 72.9327 9.08929H44.625V0H72.9327C81.1084 0 87.7645 6.64882 87.7645 14.8201C87.7645 19.5829 85.4988 23.8321 81.9865 26.5453Z" fill="#D82F4A"/>
<path d="M38.2361 63.7751L34.8011 59.2669V63.7751H32.3125V53.5679H34.8011V58.0489L38.2088 53.5679H41.1342L37.176 58.5715L41.2798 63.7797H38.2361V63.7751Z" fill="#D82F4A"/>
<path d="M44.9467 55.5583V57.6216H48.2815V59.5394H44.9467V61.78H48.7183V63.7705H42.458V53.5632H48.7183V55.5538H44.9467V55.5583Z" fill="#D82F4A"/>
<path d="M57.6854 53.5632V55.5538H54.9784V63.7705H52.4897V55.5538H49.7827V53.5632H57.69H57.6854Z" fill="#D82F4A"/>
<path d="M68.3866 61.9709H64.574L63.9644 63.7751H61.3574L65.0563 53.5679H67.9407L71.6396 63.7751H69.0053L68.3957 61.9709H68.3866ZM67.7451 60.0531L66.4803 56.3174L65.2292 60.0531H67.7496H67.7451Z" fill="#D82F4A"/>
<path d="M79.4051 54.2041C80.2104 54.6313 80.8337 55.2312 81.275 55.9993C81.7163 56.7718 81.9393 57.6581 81.9393 58.667C81.9393 59.6759 81.7163 60.553 81.275 61.3301C80.8337 62.1073 80.2059 62.7072 79.396 63.1343C78.5862 63.5615 77.6444 63.7751 76.5798 63.7751H72.749V53.5679H76.5798C77.6581 53.5679 78.5998 53.7815 79.4051 54.2087V54.2041ZM78.618 60.8484C79.1412 60.3348 79.4051 59.6077 79.4051 58.667C79.4051 57.7262 79.1412 56.9945 78.618 56.4719C78.0948 55.9493 77.3623 55.6857 76.4206 55.6857H75.2422V61.621H76.4206C77.3623 61.621 78.0948 61.3665 78.618 60.8484Z" fill="#D82F4A"/>
<path d="M92.9316 53.5632L89.3055 63.7705H86.189L82.563 53.5632H85.2109L87.745 61.271L90.2928 53.5632H92.927H92.9316Z" fill="#D82F4A"/>
<path d="M100.329 61.9709H96.5169L95.9072 63.7751H93.3003L96.9991 53.5679H99.8836L103.582 63.7751H100.948L100.339 61.9709H100.329ZM99.688 60.0531L98.4232 56.3174L97.172 60.0531H99.6925H99.688Z" fill="#D82F4A"/>
<path d="M113.837 63.7751H111.348L107.185 57.4763V63.7751H104.697V53.5679H107.185L111.348 59.894V53.5679H113.837V63.7751Z" fill="#D82F4A"/>
<path d="M21.6551 55.8836C22.0919 55.0929 22.7016 54.4793 23.4841 54.0385C24.2666 53.5977 25.1493 53.375 26.1411 53.375C27.3558 53.375 28.3931 53.6931 29.2576 54.3339C30.122 54.9747 30.6998 55.8473 30.991 56.9516H28.2521C28.0474 56.5244 27.7607 56.2018 27.3877 55.9791C27.0146 55.7564 26.5915 55.6428 26.1138 55.6428C25.3449 55.6428 24.7261 55.9109 24.2484 56.4426C23.7707 56.9744 23.5341 57.6879 23.5341 58.5786C23.5341 59.4694 23.7707 60.1829 24.2484 60.7146C24.7216 61.2463 25.3449 61.5145 26.1138 61.5145C26.5869 61.5145 27.0146 61.4008 27.3877 61.1782C27.7607 60.9555 28.0519 60.6283 28.2521 60.2056H30.991C30.6998 61.31 30.122 62.1825 29.2576 62.8142C28.3931 63.4505 27.3558 63.7686 26.1411 63.7686C25.1493 63.7686 24.2666 63.5459 23.4841 63.1051C22.7016 62.6643 22.0919 62.0507 21.6551 61.2645C21.2184 60.4783 21 59.583 21 58.5741C21 57.5652 21.2184 56.6653 21.6551 55.8746V55.8836Z" fill="#D82F4A"/>
<path d="M115.28 55.8836C115.717 55.0929 116.327 54.4793 117.109 54.0385C117.892 53.5977 118.774 53.375 119.766 53.375C120.981 53.375 122.018 53.6931 122.883 54.3339C123.747 54.9747 124.325 55.8473 124.616 56.9516H121.877C121.672 56.5244 121.386 56.2018 121.013 55.9791C120.64 55.7564 120.216 55.6428 119.739 55.6428C118.97 55.6428 118.351 55.9109 117.873 56.4426C117.396 56.9744 117.159 57.6879 117.159 58.5786C117.159 59.4694 117.396 60.1829 117.873 60.7146C118.347 61.2463 118.97 61.5145 119.739 61.5145C120.212 61.5145 120.64 61.4008 121.013 61.1782C121.386 60.9555 121.677 60.6283 121.877 60.2056H124.616C124.325 61.31 123.747 62.1825 122.883 62.8142C122.018 63.4505 120.981 63.7686 119.766 63.7686C118.774 63.7686 117.892 63.5459 117.109 63.1051C116.327 62.6643 115.717 62.0507 115.28 61.2645C114.843 60.4783 114.625 59.583 114.625 58.5741C114.625 57.5652 114.843 56.6653 115.28 55.8746V55.8836Z" fill="#D82F4A"/>
<path d="M129.228 55.5583V57.6216H132.563V59.5394H129.228V61.78H133V63.7705H126.74V53.5632H133V55.5538H129.228V55.5583Z" fill="#D82F4A"/>
<path d="M5.21387 63.7751L3.08919 59.9213H2.49319V63.7751H0V53.5679H4.17655C4.98183 53.5679 5.66883 53.7088 6.23753 53.9905C6.80623 54.2723 7.22935 54.6586 7.51142 55.1449C7.7935 55.6357 7.93454 56.181 7.93454 56.7809C7.93454 57.4581 7.74345 58.0671 7.36129 58.5988C6.97912 59.1305 6.41042 59.5077 5.66428 59.735L8.02098 63.7797H5.20932L5.21387 63.7751ZM2.49319 58.1625H4.03551C4.49048 58.1625 4.8317 58.0489 5.06373 57.8262C5.29121 57.6035 5.40495 57.2899 5.40495 56.8809C5.40495 56.4719 5.29121 56.1856 5.06373 55.9629C4.83625 55.7402 4.49503 55.6266 4.03551 55.6266H2.49319V58.158V58.1625Z" fill="#D82F4A"/>
<path d="M11.6833 63.1642C10.8825 62.7188 10.2456 62.0962 9.77697 61.2963C9.30836 60.4965 9.07178 59.5966 9.07178 58.5968C9.07178 57.597 9.30836 56.7017 9.77697 55.9064C10.2456 55.1111 10.8825 54.493 11.6833 54.0431C12.484 53.5977 13.3666 53.375 14.3266 53.375C15.2866 53.375 16.1692 53.5977 16.9699 54.0431C17.7707 54.4884 18.403 55.1111 18.8626 55.9064C19.3221 56.7017 19.5541 57.597 19.5541 58.5968C19.5541 59.5966 19.3221 60.4965 18.8535 61.2963C18.3894 62.0962 17.757 62.7188 16.9608 63.1642C16.1646 63.6095 15.2866 63.8322 14.3266 63.8322C13.3666 63.8322 12.484 63.6095 11.6833 63.1642ZM16.2829 60.751C16.7743 60.2056 17.02 59.4921 17.02 58.5968C17.02 57.7015 16.7743 56.9744 16.2829 56.4381C15.7916 55.9018 15.141 55.6291 14.3266 55.6291C13.5122 55.6291 12.8434 55.8973 12.3521 56.429C11.8607 56.9607 11.615 57.6833 11.615 58.5968C11.615 59.5103 11.8607 60.2192 12.3521 60.7555C12.8434 61.2918 13.4986 61.5645 14.3266 61.5645C15.1546 61.5645 15.7961 61.2918 16.2829 60.751Z" fill="#D82F4A"/>
</svg>